<svg width="72" height="72" viewBox="0 0 72 72" fill="none" xmlns="http://www.w3.org/2000/svg">
<g clip-path="url(#clip0_5_5)">
<path fill-rule="evenodd" clip-rule="evenodd" d="M36.0008 1.5C27.4545 1.50443 19.1884 4.53137 12.6806 10.0396C6.17282 15.5478 1.84771 23.178 0.478634 31.566C-0.890443 39.954 0.78578 48.5527 5.20761 55.8245C9.62944 63.0964 16.5085 68.5673 24.6148 71.2589C26.4032 71.5909 27.0768 70.4824 27.0768 69.54C27.0768 68.5975 27.041 65.865 27.0291 62.8777C17.0142 65.0411 14.898 58.6515 14.898 58.6515C13.2646 54.5023 10.9039 53.4117 10.9039 53.4117C7.63715 51.1949 11.1483 51.2364 11.1483 51.2364C14.7668 51.4912 16.6685 54.9291 16.6685 54.9291C19.8756 60.4 25.0917 58.8174 27.1424 57.8928C27.4643 55.5752 28.4002 53.9985 29.4315 53.1035C21.4315 52.2025 13.0261 49.1321 13.0261 35.4163C12.9765 31.8591 14.3041 28.4192 16.734 25.808C16.3644 24.9071 15.1304 21.2677 17.0857 16.3243C17.0857 16.3243 20.1081 15.3641 26.9874 19.9933C32.888 18.3889 39.1136 18.3889 45.0142 19.9933C51.8875 15.3641 54.9039 16.3243 54.9039 16.3243C56.8652 21.2558 55.6312 24.8952 55.2616 25.808C57.6993 28.4196 59.0296 31.8656 58.9755 35.4281C58.9755 49.1736 50.5522 52.2025 42.5403 53.0857C43.8279 54.2 44.9784 56.3754 44.9784 59.7184C44.9784 64.5077 44.9367 68.3605 44.9367 69.54C44.9367 70.4943 45.5865 71.6086 47.4106 71.2589C55.5178 68.567 62.3976 63.0951 66.8193 55.822C71.2411 48.5489 72.9165 39.9489 71.5458 31.5602C70.1752 23.1714 65.8479 15.5411 59.338 10.0338C52.828 4.52657 44.56 1.50162 36.0127 1.5H36.0008Z" fill="#E8F9FD"/>
<path d="M13.6333 52.896C13.5558 53.0738 13.2697 53.1272 13.0372 53.0027C12.8047 52.8782 12.6318 52.6471 12.7153 52.4633C12.7987 52.2796 13.0789 52.2321 13.3114 52.3566C13.5439 52.4811 13.7227 52.7182 13.6333 52.896Z" fill="#E8F9FD"/>
<path d="M15.0939 54.5142C14.9705 54.576 14.8292 54.5933 14.6944 54.563C14.5595 54.5327 14.4395 54.4568 14.3547 54.3482C14.1223 54.0992 14.0745 53.7555 14.2534 53.6014C14.4322 53.4472 14.7541 53.5184 14.9866 53.7673C15.2191 54.0163 15.2728 54.36 15.0939 54.5142Z" fill="#E8F9FD"/>
<path d="M16.5127 56.5709C16.2922 56.7251 15.9166 56.571 15.7079 56.2627C15.6503 56.2074 15.6044 56.1411 15.573 56.0678C15.5417 55.9945 15.5255 55.9156 15.5255 55.836C15.5255 55.7563 15.5417 55.6774 15.573 55.6041C15.6044 55.5308 15.6503 55.4645 15.7079 55.4092C15.9285 55.261 16.3041 55.4092 16.5127 55.7115C16.7214 56.0138 16.7273 56.4168 16.5127 56.5709Z" fill="#E8F9FD"/>
<path d="M18.4381 58.5625C18.2414 58.7818 17.842 58.7226 17.5141 58.4262C17.1862 58.1298 17.1087 57.7268 17.3055 57.5134C17.5022 57.3 17.9016 57.3593 18.2414 57.6497C18.5812 57.9402 18.6467 58.3491 18.4381 58.5625Z" fill="#E8F9FD"/>
<path d="M21.1385 59.7243C21.0491 60.0029 20.6437 60.1274 20.2384 60.0088C19.833 59.8903 19.5647 59.5583 19.6422 59.2738C19.7197 58.9893 20.1311 58.8589 20.5424 58.9893C20.9537 59.1197 21.216 59.4339 21.1385 59.7243Z" fill="#E8F9FD"/>
<path d="M24.0835 59.9258C24.0835 60.2162 23.7497 60.4652 23.3205 60.4711C22.8913 60.477 22.5396 60.2399 22.5396 59.9495C22.5396 59.6591 22.8734 59.4101 23.3026 59.4042C23.7318 59.3983 24.0835 59.6294 24.0835 59.9258Z" fill="#E8F9FD"/>
<path d="M26.8257 59.4694C26.8793 59.7598 26.5813 60.0621 26.1521 60.1333C25.7229 60.2044 25.3473 60.0325 25.2936 59.748C25.24 59.4635 25.55 59.1553 25.9673 59.0782C26.3846 59.0012 26.772 59.179 26.8257 59.4694Z" fill="#E8F9FD"/>
</g>
<defs>
<clipPath id="clip0_5_5">
<rect width="72" height="72" fill="white"/>
</clipPath>
</defs>
</svg>
