<?xml version="1.0" encoding="utf-8"?>
<!-- Generator: Adobe Illustrator 26.0.1, SVG Export Plug-In . SVG Version: 6.00 Build 0)  -->
<svg version="1.1" id="Layer_1" xmlns="http://www.w3.org/2000/svg" xmlns:xlink="http://www.w3.org/1999/xlink" x="0px" y="0px"
	 viewBox="0 0 90 90" style="enable-background:new 0 0 90 90;" xml:space="preserve">
<style type="text/css">
	.st0{fill:#E8F9FD;}
</style>
<g>
	<path class="st0" d="M45,2C21.8,2,3,20.8,3,44s18.8,42,42,42s42-18.8,42-42S68.2,2,45,2z M70.3,56.8c0,1.2-0.7,2.2-1.6,2.8
		l-10.6,6.2c-1.1,0.5-2.2,0.5-3.2,0l-10.6-6.2c-1.1-0.7-1.6-1.7-1.6-2.8v-4.3l5-2.9v4.2c0,1.2,0.7,2.2,1.6,2.8l5.6,3.3
		c1.1,0.5,2.2,0.5,3.2,0l5.5-3.3c1.1-0.7,1.6-1.7,1.6-2.8v-6.6c0-1.2-0.7-2.2-1.6-2.8L58,41.2c-1.1-0.5-2.2-0.5-3.2,0l-7.2,4.2
		l-5,2.9l-7.2,4.2c-1.1,0.5-2.2,0.5-3.2,0l-10.6-6.2c-1.1-0.7-1.6-1.7-1.6-2.8V31.2c0-1.1,0.5-2.1,1.6-2.6l10.8-6.3
		c1.1-0.5,2.2-0.5,3.2,0L46,28.4c1.1,0.7,1.6,1.7,1.6,2.8v4.5l-5,2.9v-4.3c0-1.2-0.7-2.2-1.6-2.8L35.4,28c-1.1-0.5-2.2-0.5-3.2,0
		l-5.6,3.3C25.5,32,25,33,25,34.1v6.6c0,1.2,0.7,2.2,1.6,2.8l5.6,3.4c1.1,0.5,2.2,0.5,3.2,0l7.2-4.3l5-2.8l7.4-4.3
		c1.1-0.5,2.2-0.5,3.2,0l10.6,6.2c1.1,0.7,1.6,1.7,1.6,2.8V56.8z"/>
	<g>
		<defs>
			<rect id="SVGID_1_" x="20" y="22" width="50.4" height="44"/>
		</defs>
		<clipPath id="SVGID_00000071535388856126305980000000477942323028875657_">
			<use xlink:href="#SVGID_1_"  style="overflow:visible;"/>
		</clipPath>
	</g>
</g>
</svg>
