<svg width="72" height="72" viewBox="0 0 72 72" fill="none" xmlns="http://www.w3.org/2000/svg">
<path d="M22.6426 65.4888C49.8125 65.4888 64.6733 42.9787 64.6733 23.4581C64.6733 22.8187 64.6733 22.1823 64.6301 21.5487C67.5211 19.4575 70.0167 16.8683 72 13.9023C69.3042 15.0975 66.4441 15.8809 63.5155 16.2264C66.5994 14.3805 68.9075 11.4768 70.0099 8.05586C67.1103 9.77669 63.9379 10.9893 60.6298 11.6415C58.4025 9.27319 55.4569 7.70499 52.2486 7.17952C49.0403 6.65404 45.7483 7.20061 42.8819 8.73462C40.0155 10.2686 37.7347 12.7046 36.3922 15.6655C35.0498 18.6264 34.7206 21.9473 35.4557 25.1141C29.5827 24.8195 23.8373 23.2932 18.5924 20.6343C13.3475 17.9754 8.72029 14.2432 5.0112 9.68018C3.12218 12.9322 2.54362 16.7819 3.3933 20.4454C4.24298 24.109 6.45703 27.311 9.58464 29.3995C7.2337 29.3307 4.93394 28.6964 2.88 27.5506V27.7378C2.88093 31.1483 4.06155 34.4536 6.22161 37.0929C8.38167 39.7322 11.3882 41.5431 14.7312 42.2184C12.5564 42.8116 10.2746 42.8983 8.06112 42.4719C9.00544 45.4068 10.8433 47.9734 13.3177 49.8127C15.7921 51.652 18.7795 52.6721 21.8621 52.7304C18.7993 55.1379 15.2919 56.9178 11.5406 57.9684C7.7893 59.019 3.86764 59.3197 0 58.8533C6.7555 63.1884 14.6158 65.4879 22.6426 65.4773" fill="#E8F9FD"/>
</svg>
